<svg data-v-423bf9ae="" xmlns="http://www.w3.org/2000/svg" viewBox="0 0 326.79930155855914 60" class="font"><!----><!----><!----><g data-v-423bf9ae="" id="5385b63c-d896-4a94-ab05-631357bc96c6" fill="#ffc107" transform="matrix(5.424955053999871,0,0,5.424955053999871,-6.075946911664943,-11.826401664618807)"><path d="M9.46 13.05L7.63 13.05L7.63 13.05Q6.69 11.38 5.60 9.76L5.60 9.76L5.60 9.76Q4.51 8.13 3.28 6.69L3.28 6.69L3.28 13.05L1.12 13.05L1.12 3.35L2.90 3.35L2.90 3.35Q3.36 3.81 3.92 4.48L3.92 4.48L3.92 4.48Q4.48 5.15 5.06 5.92L5.06 5.92L5.06 5.92Q5.64 6.68 6.22 7.50L6.22 7.50L6.22 7.50Q6.79 8.32 7.29 9.07L7.29 9.07L7.29 3.35L9.46 3.35L9.46 13.05ZM18.45 9.35L18.45 9.35L18.45 9.35Q18.45 10.22 18.20 10.94L18.20 10.94L18.20 10.94Q17.95 11.66 17.47 12.17L17.47 12.17L17.47 12.17Q17.00 12.68 16.33 12.96L16.33 12.96L16.33 12.96Q15.67 13.24 14.84 13.24L14.84 13.24L14.84 13.24Q14.03 13.24 13.36 12.96L13.36 12.96L13.36 12.96Q12.70 12.68 12.22 12.17L12.22 12.17L12.22 12.17Q11.75 11.66 11.48 10.94L11.48 10.94L11.48 10.94Q11.21 10.22 11.21 9.35L11.21 9.35L11.21 9.35Q11.21 8.48 11.49 7.77L11.49 7.77L11.49 7.77Q11.76 7.06 12.24 6.55L12.24 6.55L12.24 6.55Q12.73 6.05 13.39 5.77L13.39 5.77L13.39 5.77Q14.06 5.49 14.84 5.49L14.84 5.49L14.84 5.49Q15.64 5.49 16.30 5.77L16.30 5.77L16.30 5.77Q16.97 6.05 17.44 6.55L17.44 6.55L17.44 6.55Q17.92 7.06 18.19 7.77L18.19 7.77L18.19 7.77Q18.45 8.48 18.45 9.35ZM16.32 9.35L16.32 9.35L16.32 9.35Q16.32 8.39 15.94 7.83L15.94 7.83L15.94 7.83Q15.55 7.28 14.84 7.28L14.84 7.28L14.84 7.28Q14.13 7.28 13.73 7.83L13.73 7.83L13.73 7.83Q13.34 8.39 13.34 9.35L13.34 9.35L13.34 9.35Q13.34 10.32 13.73 10.88L13.73 10.88L13.73 10.88Q14.13 11.45 14.84 11.45L14.84 11.45L14.84 11.45Q15.55 11.45 15.94 10.88L15.94 10.88L15.94 10.88Q16.32 10.32 16.32 9.35ZM23.30 11.47L23.00 13.19L23.00 13.19Q22.09 13.17 21.53 12.99L21.53 12.99L21.53 12.99Q20.96 12.81 20.63 12.48L20.63 12.48L20.63 12.48Q20.30 12.15 20.18 11.68L20.18 11.68L20.18 11.68Q20.06 11.21 20.06 10.63L20.06 10.63L20.06 2.52L22.15 2.18L22.15 10.21L22.15 10.21Q22.15 10.49 22.19 10.71L22.19 10.71L22.19 10.71Q22.23 10.93 22.35 11.09L22.35 11.09L22.35 11.09Q22.47 11.24 22.69 11.34L22.69 11.34L22.69 11.34Q22.92 11.44 23.30 11.47L23.30 11.47ZM24.14 9.42L24.14 9.42L24.14 9.42Q24.14 8.44 24.44 7.71L24.44 7.71L24.44 7.71Q24.74 6.97 25.23 6.48L25.23 6.48L25.23 6.48Q25.72 5.99 26.36 5.74L26.36 5.74L26.36 5.74Q26.99 5.49 27.66 5.49L27.66 5.49L27.66 5.49Q29.23 5.49 30.14 6.45L30.14 6.45L30.14 6.45Q31.05 7.41 31.05 9.27L31.05 9.27L31.05 9.27Q31.05 9.45 31.04 9.67L31.04 9.67L31.04 9.67Q31.02 9.88 31.01 10.05L31.01 10.05L26.28 10.05L26.28 10.05Q26.35 10.70 26.88 11.07L26.88 11.07L26.88 11.07Q27.41 11.45 28.31 11.45L28.31 11.45L28.31 11.45Q28.88 11.45 29.44 11.35L29.44 11.35L29.44 11.35Q29.99 11.24 30.34 11.09L30.34 11.09L30.62 12.78L30.62 12.78Q30.45 12.87 30.17 12.95L30.17 12.95L30.17 12.95Q29.89 13.03 29.55 13.10L29.55 13.10L29.55 13.10Q29.20 13.16 28.81 13.20L28.81 13.20L28.81 13.20Q28.42 13.24 28.03 13.24L28.03 13.24L28.03 13.24Q27.03 13.24 26.30 12.95L26.30 12.95L26.30 12.95Q25.56 12.66 25.08 12.14L25.08 12.14L25.08 12.14Q24.60 11.63 24.37 10.93L24.37 10.93L24.37 10.93Q24.14 10.23 24.14 9.42ZM26.28 8.62L29.04 8.62L29.04 8.62Q29.02 8.36 28.95 8.11L28.95 8.11L28.95 8.11Q28.87 7.85 28.71 7.66L28.71 7.66L28.71 7.66Q28.55 7.46 28.30 7.34L28.30 7.34L28.30 7.34Q28.06 7.21 27.69 7.21L27.69 7.21L27.69 7.21Q27.34 7.21 27.09 7.33L27.09 7.33L27.09 7.33Q26.84 7.45 26.67 7.64L26.67 7.64L26.67 7.64Q26.50 7.84 26.41 8.10L26.41 8.10L26.41 8.10Q26.32 8.36 26.28 8.62L26.28 8.62ZM38.11 3.35L38.11 9.79L38.11 9.79Q38.11 10.50 37.95 11.13L37.95 11.13L37.95 11.13Q37.79 11.76 37.39 12.23L37.39 12.23L37.39 12.23Q36.99 12.70 36.31 12.97L36.31 12.97L36.31 12.97Q35.63 13.24 34.59 13.24L34.59 13.24L34.59 13.24Q33.64 13.24 32.96 13.01L32.96 13.01L32.96 13.01Q32.27 12.78 31.82 12.47L31.82 12.47L32.55 10.78L32.55 10.78Q32.96 11.02 33.42 11.20L33.42 11.20L33.42 11.20Q33.88 11.38 34.43 11.38L34.43 11.38L34.43 11.38Q35.22 11.38 35.57 10.99L35.57 10.99L35.57 10.99Q35.92 10.60 35.92 9.67L35.92 9.67L35.92 3.35L38.11 3.35ZM42.88 11.59L42.88 11.59L42.88 11.59Q43.19 11.59 43.47 11.58L43.47 11.58L43.47 11.58Q43.75 11.56 43.92 11.54L43.92 11.54L43.92 9.95L43.92 9.95Q43.79 9.93 43.54 9.90L43.54 9.90L43.54 9.90Q43.29 9.87 43.08 9.87L43.08 9.87L43.08 9.87Q42.78 9.87 42.52 9.90L42.52 9.90L42.52 9.90Q42.27 9.94 42.07 10.04L42.07 10.04L42.07 10.04Q41.87 10.14 41.76 10.30L41.76 10.30L41.76 10.30Q41.65 10.47 41.65 10.72L41.65 10.72L41.65 10.72Q41.65 11.21 41.98 11.40L41.98 11.40L41.98 11.40Q42.31 11.59 42.88 11.59ZM42.71 5.49L42.71 5.49L42.71 5.49Q43.64 5.49 44.25 5.70L44.25 5.70L44.25 5.70Q44.87 5.91 45.24 6.30L45.24 6.30L45.24 6.30Q45.61 6.69 45.77 7.25L45.77 7.25L45.77 7.25Q45.92 7.81 45.92 8.50L45.92 8.50L45.92 12.84L45.92 12.84Q45.47 12.94 44.67 13.07L44.67 13.07L44.67 13.07Q43.88 13.20 42.74 13.20L42.74 13.20L42.74 13.20Q42.03 13.20 41.45 13.08L41.45 13.08L41.45 13.08Q40.87 12.95 40.45 12.66L40.45 12.66L40.45 12.66Q40.03 12.38 39.80 11.91L39.80 11.91L39.80 11.91Q39.58 11.45 39.58 10.78L39.58 10.78L39.58 10.78Q39.58 10.14 39.84 9.69L39.84 9.69L39.84 9.69Q40.10 9.24 40.53 8.97L40.53 8.97L40.53 8.97Q40.96 8.71 41.52 8.59L41.52 8.59L41.52 8.59Q42.08 8.47 42.69 8.47L42.69 8.47L42.69 8.47Q43.09 8.47 43.41 8.50L43.41 8.50L43.41 8.50Q43.72 8.54 43.92 8.60L43.92 8.60L43.92 8.40L43.92 8.40Q43.92 7.87 43.60 7.55L43.60 7.55L43.60 7.55Q43.27 7.22 42.48 7.22L42.48 7.22L42.48 7.22Q41.94 7.22 41.43 7.30L41.43 7.30L41.43 7.30Q40.91 7.38 40.53 7.52L40.53 7.52L40.26 5.84L40.26 5.84Q40.45 5.78 40.72 5.72L40.72 5.72L40.72 5.72Q40.99 5.66 41.31 5.61L41.31 5.61L41.31 5.61Q41.64 5.56 41.99 5.52L41.99 5.52L41.99 5.52Q42.35 5.49 42.71 5.49ZM51.55 13.05L49.81 13.05L49.81 13.05Q49.10 11.65 48.36 9.77L48.36 9.77L48.36 9.77Q47.63 7.90 46.97 5.68L46.97 5.68L49.18 5.68L49.18 5.68Q49.32 6.23 49.51 6.87L49.51 6.87L49.51 6.87Q49.70 7.50 49.90 8.16L49.90 8.16L49.90 8.16Q50.11 8.81 50.31 9.42L50.31 9.42L50.31 9.42Q50.51 10.04 50.71 10.54L50.71 10.54L50.71 10.54Q50.89 10.04 51.10 9.42L51.10 9.42L51.10 9.42Q51.31 8.81 51.51 8.16L51.51 8.16L51.51 8.16Q51.72 7.50 51.91 6.87L51.91 6.87L51.91 6.87Q52.09 6.23 52.23 5.68L52.23 5.68L54.39 5.68L54.39 5.68Q53.73 7.90 53.00 9.77L53.00 9.77L53.00 9.77Q52.26 11.65 51.55 13.05L51.55 13.05ZM58.32 11.59L58.32 11.59L58.32 11.59Q58.63 11.59 58.91 11.58L58.91 11.58L58.91 11.58Q59.19 11.56 59.36 11.54L59.36 11.54L59.36 9.95L59.36 9.95Q59.23 9.93 58.98 9.90L58.98 9.90L58.98 9.90Q58.73 9.87 58.52 9.87L58.52 9.87L58.52 9.87Q58.23 9.87 57.97 9.90L57.97 9.90L57.97 9.90Q57.71 9.94 57.51 10.04L57.51 10.04L57.51 10.04Q57.32 10.14 57.20 10.30L57.20 10.30L57.20 10.30Q57.09 10.47 57.09 10.72L57.09 10.72L57.09 10.72Q57.09 11.21 57.42 11.40L57.42 11.40L57.42 11.40Q57.75 11.59 58.32 11.59ZM58.16 5.49L58.16 5.49L58.16 5.49Q59.08 5.49 59.70 5.70L59.70 5.70L59.70 5.70Q60.31 5.91 60.68 6.30L60.68 6.30L60.68 6.30Q61.05 6.69 61.21 7.25L61.21 7.25L61.21 7.25Q61.36 7.81 61.36 8.50L61.36 8.50L61.36 12.84L61.36 12.84Q60.91 12.94 60.12 13.07L60.12 13.07L60.12 13.07Q59.32 13.20 58.18 13.20L58.18 13.20L58.18 13.20Q57.47 13.20 56.89 13.08L56.89 13.08L56.89 13.08Q56.31 12.95 55.89 12.66L55.89 12.66L55.89 12.66Q55.47 12.38 55.24 11.91L55.24 11.91L55.24 11.91Q55.02 11.45 55.02 10.78L55.02 10.78L55.02 10.78Q55.02 10.14 55.28 9.69L55.28 9.69L55.28 9.69Q55.54 9.24 55.97 8.97L55.97 8.97L55.97 8.97Q56.41 8.71 56.97 8.59L56.97 8.59L56.97 8.59Q57.53 8.47 58.13 8.47L58.13 8.47L58.13 8.47Q58.53 8.47 58.85 8.50L58.85 8.50L58.85 8.50Q59.16 8.54 59.36 8.60L59.36 8.60L59.36 8.40L59.36 8.40Q59.36 7.87 59.04 7.55L59.04 7.55L59.04 7.55Q58.72 7.22 57.92 7.22L57.92 7.22L57.92 7.22Q57.39 7.22 56.87 7.30L56.87 7.30L56.87 7.30Q56.35 7.38 55.97 7.52L55.97 7.52L55.71 5.84L55.71 5.84Q55.89 5.78 56.16 5.72L56.16 5.72L56.16 5.72Q56.43 5.66 56.76 5.61L56.76 5.61L56.76 5.61Q57.08 5.56 57.44 5.52L57.44 5.52L57.44 5.52Q57.79 5.49 58.16 5.49Z"></path></g><!----><!----></svg>